<svg xmlns="http://www.w3.org/2000/svg" viewBox="14.85 22.64 140.37 82.43"><title>Asset 1</title><path d="M134.65,70.21l18.95,2.5a1,1,0,0,0,1.17-.89,69.48,69.48,0,0,0,0-15.92,1,1,0,0,0-1.16-.9l-19,2.47a1,1,0,0,0-.88,1.14,48.13,48.13,0,0,1,0,10.46,1,1,0,0,0,.88,1.14" style="fill:#f5aa00"/><path d="M125.09,93.19l15.16,11.65a1,1,0,0,0,1.46-.2,69.71,69.71,0,0,0,8-13.77,1,1,0,0,0-.56-1.36l-17.65-7.34a1,1,0,0,0-1.34.54,47,47,0,0,1-5.24,9.06,1,1,0,0,0,.2,1.42" style="fill:#e62d8c"/><path d="M131.46,45.52l17.66-7.3a1,1,0,0,0,.56-1.36,69.45,69.45,0,0,0-7.94-13.79,1,1,0,0,0-1.46-.2L125.1,34.49a1,1,0,0,0-.2,1.42A48.31,48.31,0,0,1,130.12,45a1,1,0,0,0,1.34.54" style="fill:#009682"/><path d="M45,34.51,29.83,22.87a1,1,0,0,0-1.46.2,69.22,69.22,0,0,0-8,13.77A1,1,0,0,0,21,38.2L38.6,45.54A1,1,0,0,0,39.94,45a47.83,47.83,0,0,1,5.25-9,1,1,0,0,0-.2-1.44" style="fill:#e6001e"/><path d="M35.43,57.5,16.48,55a1,1,0,0,0-1.17.9,69.48,69.48,0,0,0,0,15.92,1,1,0,0,0,1.16.9l18.95-2.47a1,1,0,0,0,.89-1.14,48.13,48.13,0,0,1,0-10.46,1,1,0,0,0-.88-1.14" style="fill:#a5c80f"/><path d="M38.62,82.19,21,89.49a1,1,0,0,0-.56,1.36,69.45,69.45,0,0,0,7.94,13.79,1,1,0,0,0,1.46.2L45,93.22a1,1,0,0,0,.2-1.42A47.76,47.76,0,0,1,40,82.73a1,1,0,0,0-1.34-.54" style="fill:#009beb"/><path d="M83.45,34.11C65.76,34.11,53,47.71,53,64,53,82.87,66.16,93.6,81.59,93.6c3.16,0,7.23-.4,9.65-1.43a1.5,1.5,0,0,0,.87-1.4V76.57a1,1,0,0,0-1.32-1,23,23,0,0,1-7.09,1c-5.62,0-12.08-4-12.08-13.07a12.12,12.12,0,0,1,12-12.36c8.12,0,13.1,5.66,13.1,13.16V91.18a1,1,0,0,0,1,1h16.61a1,1,0,0,0,1-1V63.49C115.44,45.87,102.82,34.11,83.45,34.11Z"/></svg>